<?xml version="1.0" encoding="utf-8" standalone="no"?>
<!DOCTYPE svg PUBLIC "-//W3C//DTD SVG 1.1//EN"
  "http://www.w3.org/Graphics/SVG/1.1/DTD/svg11.dtd">
<!-- Created with matplotlib (https://matplotlib.org/) -->
<svg height="432pt" version="1.1" viewBox="0 0 576 432" width="576pt" xmlns="http://www.w3.org/2000/svg" xmlns:xlink="http://www.w3.org/1999/xlink">
 <defs>
  <style type="text/css">
*{stroke-linecap:butt;stroke-linejoin:round;}
  </style>
 </defs>
 <g id="figure_1">
  <g id="patch_1">
   <path d="M 0 432 
L 576 432 
L 576 0 
L 0 0 
z
" style="fill:none;"/>
  </g>
  <g id="axes_1">
   <g id="patch_2">
    <path d="M 110.481515 378 
L 110.481515 51.84 
L 479.918485 51.84 
L 479.918485 378 
L 110.481515 378 
" style="fill:#ffffff;"/>
   </g>
   <g id="PathCollection_1">
    <path clip-path="url(#p789234cdbf)" d="M 299.08515 92.611905 
L 299.022881 92.779998 
L 299.120188 93.150324 
L 299.104622 93.263261 
L 299.256428 94.224535 
L 299.299246 94.481925 
L 299.884999 94.825976 
L 302.568488 93.53894 
L 301.743181 87.146219 
L 302.901142 90.649845 
L 303.430245 85.801421 
L 305.010546 90.276799 
L 305.582407 85.425741 
L 307.114048 88.950335 
L 312.944032 88.193491 
L 313.638284 83.316135 
L 314.976903 81.753279 
L 316.763151 81.138509 
L 317.856822 81.957837 
L 314.511928 82.680456 
L 313.338896 86.404852 
L 316.575538 91.830754 
L 324.199166 87.026045 
L 320.717338 82.564201 
L 325.353201 87.69299 
L 333.362681 87.804567 
L 325.093235 79.908272 
L 326.414347 79.101756 
L 335.296467 85.437771 
L 342.023342 84.83749 
L 340.140987 81.862167 
L 342.771367 79.981035 
L 340.481492 81.757034 
L 343.280691 86.068993 
L 344.648736 86.333931 
L 344.928628 85.039029 
L 344.474967 83.957048 
L 343.962901 82.738507 
L 342.394793 83.912898 
L 342.06576 83.153935 
L 343.947324 82.699114 
L 343.287095 80.298711 
L 345.419504 79.276506 
L 348.605018 79.858754 
L 350.41062 86.39284 
L 348.560273 79.898163 
L 345.411733 79.326411 
L 344.91949 79.557659 
L 345.65306 79.491816 
L 348.49415 80.032129 
L 345.347632 79.775547 
L 345.705878 80.605411 
L 345.3678 82.619972 
L 345.560648 83.441998 
L 349.1801 83.787749 
L 345.597643 83.531288 
L 346.399883 85.624355 
L 346.93893 85.737154 
L 346.904124 86.593381 
L 352.24246 88.960985 
L 353.145621 83.048617 
L 354.815739 91.457981 
L 356.691989 86.188782 
L 355.992968 91.184479 
L 360.604177 88.934802 
L 359.7164 93.673184 
L 364.395388 90.417471 
L 363.299209 100.130418 
L 368.058267 97.402506 
L 365.230004 101.020119 
L 370.009292 100.37492 
L 365.713593 103.775087 
L 370.842646 101.551254 
L 372.657494 104.444902 
L 368.322786 107.721698 
L 373.469473 105.618607 
L 369.884456 110.082296 
L 371.660294 112.582003 
L 376.004665 109.008342 
L 376.364815 109.291853 
L 371.870594 112.878711 
L 377.724754 113.026103 
L 374.571586 117.048458 
L 378.959375 114.814201 
L 375.523846 118.450602 
L 378.475276 116.030446 
L 376.611495 117.725266 
L 378.810202 121.143996 
L 381.549805 119.451408 
L 380.789486 125.579232 
L 388.069438 135.727227 
L 393.396033 134.301163 
L 389.309563 136.30447 
L 393.797981 136.328585 
L 390.126361 138.964681 
L 394.123221 140.675201 
L 389.701984 142.99123 
L 395.313454 142.594549 
L 395.662108 146.967418 
L 389.408311 147.669079 
L 393.58273 149.907446 
L 389.195496 150.455846 
L 391.984196 153.062592 
L 388.987144 154.477044 
L 395.014172 155.319863 
L 388.966458 156.034541 
L 394.670596 157.281995 
L 389.276978 158.198596 
L 394.731648 158.713383 
L 389.369091 159.527539 
L 394.749811 160.01347 
L 389.467016 160.796072 
L 394.830202 161.182203 
L 389.547367 161.943795 
L 394.889612 163.222931 
L 389.745321 164.801287 
L 394.823916 164.213137 
L 394.853351 164.688511 
L 383.866482 169.518455 
L 394.41295 171.669855 
L 390.660162 176.906204 
L 400.605946 176.147446 
L 401.306633 183.233269 
L 390.978808 179.676968 
L 392.777077 186.47864 
L 393.328109 182.614846 
L 392.999138 186.71754 
L 398.001885 189.034214 
L 393.301434 187.799496 
L 394.127598 193.138692 
L 399.39667 194.331074 
L 394.605394 194.743226 
L 398.695042 196.716266 
L 392.737497 197.205138 
L 389.993994 205.070088 
L 395.798187 208.928178 
L 397.177812 203.362 
L 399.695969 208.30372 
L 399.587774 202.420489 
L 400.751251 208.216496 
L 401.867314 201.576198 
L 402.151468 208.691147 
L 397.716157 209.066414 
L 400.854924 212.833773 
L 401.553813 208.891075 
L 401.92264 214.117553 
L 402.375777 205.770396 
L 405.11779 213.874198 
L 405.062554 205.427506 
L 405.712122 214.693331 
L 401.298413 215.654368 
L 402.686978 227.028878 
L 396.226669 228.563457 
L 404.247425 235.464272 
L 411.789225 234.884847 
L 412.410006 244.187463 
L 378.897619 247.143213 
L 411.874896 248.303464 
L 415.664226 254.011196 
L 418.275014 252.593945 
L 428.277104 266.694409 
L 416.634099 270.15034 
L 428.74009 271.726444 
L 418.019814 274.822013 
L 411.375953 271.259192 
L 414.155072 274.112557 
L 412.601724 285.756677 
L 419.929316 282.261671 
L 428.628298 288.197208 
L 432.890803 283.316952 
L 431.098255 288.276977 
L 433.389254 285.874808 
L 431.838805 288.8044 
L 437.553085 287.676304 
L 439.45807 293.072381 
L 445.516698 293.869029 
L 438.744183 297.206985 
L 448.071503 295.280157 
L 442.3699 297.976556 
L 449.069923 296.684568 
L 447.6469 303.062769 
L 439.971775 305.860393 
L 447.381364 307.417692 
L 440.202427 309.652881 
L 432.798536 305.069595 
L 443.222198 315.287139 
L 435.752183 314.050159 
L 444.876818 321.408274 
L 436.055843 322.052875 
L 445.945296 330.376962 
L 438.027399 324.767283 
L 435.652934 328.167639 
L 443.117503 334.542057 
L 435.44084 328.551255 
L 433.025255 331.780888 
L 433.070381 332.240494 
L 441.064777 338.344098 
L 440.911045 338.604233 
L 432.690355 332.083164 
L 434.174678 328.85418 
L 415.901944 322.446804 
L 409.887664 308.458988 
L 402.693025 314.971406 
L 391.661239 307.848691 
L 398.714785 314.668817 
L 397.943743 319.304973 
L 411.762386 329.829696 
L 404.144641 344.261317 
L 408.247054 349.512058 
L 411.863704 346.660242 
L 415.051079 349.481859 
L 405.386974 350.002172 
L 392.521171 345.864181 
L 378.576044 350.064958 
L 324.636551 350.256039 
L 165.009468 350.862234 
L 154.774825 293.949712 
L 144.991421 172.502358 
L 141.43245 162.71086 
L 145.854103 151.155158 
L 158.765013 140.469411 
L 171.367114 139.132818 
L 177.26651 142.858044 
L 195.614977 136.76409 
L 209.095441 105.762487 
L 214.035045 80.700434 
L 219.612082 85.38029 
L 229.1064 84.711266 
L 231.30908 91.099473 
L 241.448017 96.678368 
L 287.271352 86.303082 
L 273.717379 92.340272 
L 274.139346 95.305566 
L 272.654836 92.692098 
L 273.098205 95.557592 
L 282.437208 93.872228 
L 282.301095 92.222816 
L 279.520269 92.550923 
L 282.951083 91.697569 
L 282.312872 90.639074 
L 299.696085 88.007746 
L 295.430595 89.328894 
L 296.010496 91.443175 
L 301.103097 91.435211 
L 298.917781 91.85812 
z
M 397.579563 208.483407 
L 397.785947 208.467543 
L 397.73107 207.763678 
L 397.565588 207.805786 
z
M 379.251182 123.838546 
L 379.726304 124.384648 
L 380.290541 123.943167 
L 379.797842 123.255246 
z
M 353.109842 134.521654 
L 353.70152 134.440063 
L 357.321584 133.753474 
z
M 355.373243 120.682237 
L 354.829066 116.726972 
L 355.070969 118.649458 
z
M 348.065025 135.337242 
L 348.080607 135.379261 
L 348.123415 135.331973 
z
" style="fill:none;stroke:#000000;"/>
   </g>
  </g>
 </g>
 <defs>
  <clipPath id="p789234cdbf">
   <rect height="326.16" width="369.436969" x="110.481515" y="51.84"/>
  </clipPath>
 </defs>
</svg>
